<mxfile host="app.diagrams.net" modified="2022-03-22T15:40:19.157Z" agent="5.0 (Android 10)" etag="zOt_zY4cg_w0rpNVLTd2" version="15.9.1" type="github">
  <diagram id="3AlUT77t6YCkxJZ2REnp" name="Page-1">
    <mxGraphModel dx="652" dy="2116" grid="0" gridSize="10" guides="1" tooltips="1" connect="1" arrows="1" fold="1" page="0" pageScale="1" pageWidth="827" pageHeight="1169" math="0" shadow="1">
      <root>
        <mxCell id="0" />
        <mxCell id="1" parent="0" />
        <mxCell id="NXqI0YhtgDR1Zaes-0PB-7" value="" style="edgeStyle=none;curved=1;rounded=0;orthogonalLoop=1;jettySize=auto;html=1;endArrow=open;startSize=14;endSize=14;targetPerimeterSpacing=8;startArrow=none;sketch=1;" parent="1" source="NXqI0YhtgDR1Zaes-0PB-10" target="NXqI0YhtgDR1Zaes-0PB-6" edge="1">
          <mxGeometry relative="1" as="geometry" />
        </mxCell>
        <mxCell id="NXqI0YhtgDR1Zaes-0PB-1" value="输入" style="rounded=0;whiteSpace=wrap;html=1;hachureGap=4;sketch=1;" parent="1" vertex="1">
          <mxGeometry x="313" y="-39" width="160" height="80" as="geometry" />
        </mxCell>
        <mxCell id="NXqI0YhtgDR1Zaes-0PB-9" value="" style="edgeStyle=none;curved=1;rounded=0;orthogonalLoop=1;jettySize=auto;html=1;endArrow=open;startSize=14;endSize=14;sourcePerimeterSpacing=8;targetPerimeterSpacing=8;sketch=1;" parent="1" source="NXqI0YhtgDR1Zaes-0PB-6" target="NXqI0YhtgDR1Zaes-0PB-8" edge="1">
          <mxGeometry relative="1" as="geometry" />
        </mxCell>
        <mxCell id="NXqI0YhtgDR1Zaes-0PB-6" value="处理" style="rounded=0;whiteSpace=wrap;html=1;hachureGap=4;sketch=1;" parent="1" vertex="1">
          <mxGeometry x="589" y="-507" width="160" height="80" as="geometry" />
        </mxCell>
        <mxCell id="NXqI0YhtgDR1Zaes-0PB-8" value="输出" style="rounded=0;whiteSpace=wrap;html=1;hachureGap=4;sketch=1;" parent="1" vertex="1">
          <mxGeometry x="823" y="-306" width="160" height="76" as="geometry" />
        </mxCell>
        <mxCell id="NXqI0YhtgDR1Zaes-0PB-10" value="存储" style="rounded=0;whiteSpace=wrap;html=1;hachureGap=4;sketch=1;" parent="1" vertex="1">
          <mxGeometry x="395" y="-346" width="160" height="92" as="geometry" />
        </mxCell>
        <mxCell id="NXqI0YhtgDR1Zaes-0PB-11" value="" style="edgeStyle=none;curved=1;rounded=0;orthogonalLoop=1;jettySize=auto;html=1;endArrow=none;startSize=14;endSize=14;sourcePerimeterSpacing=8;sketch=1;" parent="1" source="NXqI0YhtgDR1Zaes-0PB-1" target="NXqI0YhtgDR1Zaes-0PB-10" edge="1">
          <mxGeometry relative="1" as="geometry">
            <mxPoint x="421.3076923076924" y="-47" as="sourcePoint" />
            <mxPoint x="640.6923076923076" y="-419" as="targetPoint" />
          </mxGeometry>
        </mxCell>
        <mxCell id="N9r5naLfOeEwc8oORzbx-1" value="" style="shape=note;whiteSpace=wrap;html=1;backgroundOutline=1;fontColor=#000000;darkOpacity=0.05;fillColor=#FFF9B2;strokeColor=none;fillStyle=solid;direction=west;gradientDirection=north;gradientColor=#FFF2A1;shadow=1;size=20;pointerEvents=1;sketch=1;hachureGap=4;fontFamily=Architects Daughter;fontSource=https%3A%2F%2Ffonts.googleapis.com%2Fcss%3Ffamily%3DArchitects%2BDaughter;fontSize=20;" vertex="1" parent="1">
          <mxGeometry x="599" y="-244" width="140" height="160" as="geometry" />
        </mxCell>
      </root>
    </mxGraphModel>
  </diagram>
</mxfile>
